<?xml version="1.0"?><svg width="640" height="480" xmlns="http://www.w3.org/2000/svg">
 <title>black wine bottle</title>
 <metadata id="metadata7">image/svg+xml</metadata>
 <g>
  <title>Layer 1</title>
  <g id="layer1">
   <g id="layer1-7">
    <g id="g2386">
     <rect id="rect2382" width="80" height="560" x="846.116017" y="-1981.248673" fill-rule="evenodd" fill="#930d0d" transform="matrix(0.421524, 0, 0, 0.421524, -268.811, 1025.14)"/>
     <rect y="-2358.391529" x="800.401717" height="234.28572" width="45.714287" id="rect2384" fill-rule="evenodd" fill="#930d0d" transform="matrix(0.421524, 0, 0, 0.421524, -268.811, 1025.14)"/>
     <path d="m51.701099,13.5466c-0.877998,0.667399 -1.358601,2.2967 -1.554199,5.255899c-0.098099,1.4849 -0.4021,2.968201 -0.671799,3.2931c-0.298901,0.3601 -0.572502,2.9604 -0.698101,6.6654c-0.1745,5.139002 -0.091,6.313002 0.513401,7.5874c0.318298,0.669998 0.4911,1.508301 0.513798,5.5457l-2.874699,79.559902c0.2061,3.076996 -0.522701,5.620995 -2.053299,8.260994c-1.2355,2.001999 -3.244503,4.429001 -7.1642,8.945007c-15.667202,16.524994 -23.295602,37.713989 -24.711902,60.080994l0.0658,223.315002c0.7482,5.790985 3.6967,14.822998 8.338201,16.769012l96.950903,0c4.640999,-1.946014 7.589996,-10.978027 8.337997,-16.769012l0.066002,-223.315002c-1.416,-22.367004 -9.045006,-43.556 -24.712006,-60.080994c-4.575096,-5.270996 -6.546997,-7.697006 -7.724693,-9.921005c-1.3181,-2.085999 -1.385605,-4.318001 -1.471107,-6.687996l-2.896797,-80.156902c0.022804,-4.037399 0.196098,-4.875702 0.513901,-5.5457c0.604897,-1.274399 0.688301,-2.448399 0.513802,-7.5874c-0.125999,-3.705 -0.3992,-6.3053 -0.698502,-6.6654c-0.269302,-0.3249 -0.573196,-1.808201 -0.671402,-3.2931c-0.195595,-2.9592 -0.676598,-4.5885 -1.554596,-5.255899c-12.076302,-0.9305 -24.281101,-1.017401 -36.356503,0l0,0l0,0zm30.362804,25.760201l2.107597,0l0,75.874199l-2.107597,0l0,-75.874199zm23.606094,163.551201l0,219.61499l-2.528999,0l0,-219.61499l2.528999,0zm8.852005,0l0,219.61499l-5.480003,0l0,-219.61499l5.480003,0z" id="path2398" fill="#930d0d"/>
    </g>
   </g>
  </g>
 </g>
</svg>